<svg width="32" height="34" viewBox="0 0 32 34" fill="none" xmlns="http://www.w3.org/2000/svg">
<path d="M6.64936 9.60489C7.05027 9.33762 7.25072 9.20399 7.46602 9.10896C7.65866 9.02515 7.86051 8.96435 8.06738 8.92781C8.3005 8.88623 8.54105 8.88623 9.02214 8.88623H24.2507C24.7318 8.88623 24.9723 8.88623 25.2054 8.92781C25.4133 8.96542 25.6133 9.02581 25.8053 9.10896C26.0221 9.20399 26.2211 9.33762 26.622 9.60489L28.0949 10.5864C28.7928 11.0511 29.1403 11.2828 29.3927 11.5886C29.6154 11.8602 29.7824 12.1731 29.8842 12.5092C30 12.8894 30 13.3081 30 14.1441V19.4583C30 20.955 30 21.7034 29.709 22.2751C29.4527 22.7782 29.0436 23.1873 28.5404 23.4436C27.9687 23.7347 27.2204 23.7346 25.7236 23.7346H7.54917C6.05245 23.7346 5.30409 23.7347 4.73243 23.4436C4.22923 23.1873 3.82015 22.7782 3.56386 22.2751C3.27283 21.7034 3.27283 20.955 3.27283 19.4583V14.1441C3.27283 13.3081 3.27283 12.8894 3.38864 12.5107C3.49039 12.1745 3.6574 11.8617 3.88013 11.5901C4.13255 11.2828 4.48149 11.0511 5.17639 10.5864L6.64936 9.60489Z" stroke="#879FAD" stroke-width="2"/>
<path d="M3.27283 21.5077V14.3062C3.27283 14.2472 3.29629 14.1905 3.33806 14.1487C3.37983 14.107 3.43648 14.0835 3.49555 14.0835H8.5559C9.17924 14.0832 9.78686 14.2791 10.2927 14.6434C10.7985 15.0077 11.1768 15.522 11.3741 16.1133L11.5048 16.5068C11.7017 17.0981 12.0798 17.6125 12.5853 17.977C13.0908 18.3416 13.6983 18.5379 14.3215 18.538H18.9498C19.5731 18.5383 20.1808 18.3424 20.6866 17.9781C21.1924 17.6138 21.5707 17.0995 21.768 16.5082L21.8987 16.1148C22.0957 15.5232 22.474 15.0086 22.9798 14.644C23.4856 14.2795 24.0934 14.0833 24.7169 14.0835H29.7773C29.8363 14.0835 29.893 14.107 29.9347 14.1487C29.9765 14.1905 30 14.2472 30 14.3062V21.5077C30 22.2953 29.6871 23.0507 29.1302 23.6076C28.5733 24.1645 27.8179 24.4774 27.0303 24.4774H6.24251C5.4549 24.4774 4.69955 24.1645 4.14263 23.6076C3.5857 23.0507 3.27283 22.2953 3.27283 21.5077Z" fill="#879FAD"/>
</svg>
