<svg width="32" height="32" viewBox="0 0 32 32" fill="none" xmlns="http://www.w3.org/2000/svg">
<g clip-path="url(#clip0_1_3698)">
<path fill-rule="evenodd" clip-rule="evenodd" d="M18.7816 5.6233C18.8816 5.81765 18.9069 6.0672 18.9564 6.5663C19.0507 7.5093 19.0978 7.9808 19.2956 8.2407C19.4189 8.40207 19.5827 8.52793 19.7703 8.6055C19.958 8.68306 20.1628 8.70956 20.364 8.6823C20.686 8.63975 21.054 8.3396 21.7877 7.7393C22.1752 7.42075 22.3696 7.26205 22.5777 7.19535C22.8429 7.11064 23.1297 7.12494 23.385 7.2356C23.5863 7.323 23.7646 7.5001 24.1176 7.8543L25.1457 8.8824C25.4999 9.2366 25.677 9.4137 25.7644 9.61495C25.8751 9.87031 25.8894 10.1571 25.8046 10.4223C25.7379 10.6304 25.5792 10.8247 25.2618 11.2123C24.6604 11.9471 24.3603 12.314 24.3166 12.6371C24.2896 12.8383 24.3164 13.043 24.3942 13.2304C24.4719 13.4178 24.5979 13.5813 24.7593 13.7044C25.018 13.9022 25.4907 13.9493 26.4348 14.0436C26.9328 14.0931 27.1823 14.1184 27.3778 14.2184C27.6245 14.3463 27.8165 14.5591 27.9184 14.8175C28 15.0211 28 15.2718 28 15.7732V17.2268C28 17.7282 28 17.9789 27.9195 18.1813C27.8173 18.4406 27.6244 18.6539 27.3767 18.7816C27.1824 18.8816 26.9328 18.9069 26.4337 18.9564C25.4907 19.0507 25.0192 19.0978 24.7593 19.2956C24.5979 19.4189 24.4721 19.5827 24.3945 19.7703C24.3169 19.958 24.2904 20.1628 24.3177 20.364C24.3614 20.686 24.6615 21.054 25.2618 21.7877C25.5792 22.1752 25.7379 22.3685 25.8046 22.5777C25.8894 22.8429 25.8751 23.1297 25.7644 23.385C25.677 23.5863 25.4999 23.7634 25.1457 24.1176L24.1176 25.1446C23.7634 25.4999 23.5863 25.677 23.385 25.7633C23.1297 25.8739 22.8429 25.8882 22.5777 25.8035C22.3696 25.7368 22.1752 25.5781 21.7877 25.2607C21.0528 24.6604 20.686 24.3603 20.364 24.3177C20.1628 24.2904 19.958 24.3169 19.7703 24.3945C19.5827 24.4721 19.4189 24.5979 19.2956 24.7593C19.0978 25.018 19.0507 25.4895 18.9564 26.4337C18.9069 26.9328 18.8816 27.1824 18.7816 27.3767C18.6542 27.6242 18.4413 27.817 18.1825 27.9195C17.9789 28 17.7282 28 17.2268 28H15.7732C15.2718 28 15.0211 28 14.8187 27.9195C14.5594 27.8173 14.3461 27.6244 14.2184 27.3767C14.1184 27.1824 14.0931 26.9328 14.0436 26.4337C13.9493 25.4907 13.9022 25.0192 13.7044 24.7593C13.5812 24.5981 13.4176 24.4724 13.2302 24.3948C13.0428 24.3173 12.8382 24.2907 12.6371 24.3177C12.314 24.3603 11.9471 24.6604 11.2123 25.2607C10.8247 25.5793 10.6304 25.7379 10.4223 25.8046C10.1571 25.8894 9.87031 25.8751 9.61495 25.7644C9.4137 25.677 9.23545 25.4999 8.8824 25.1457L7.8543 24.1176C7.5001 23.7634 7.323 23.5863 7.2356 23.385C7.12494 23.1297 7.11064 22.8429 7.19535 22.5777C7.26205 22.3696 7.42075 22.1752 7.73815 21.7877C8.3396 21.0528 8.63975 20.686 8.6823 20.3629C8.70935 20.1618 8.68275 19.9572 8.60519 19.7698C8.52763 19.5824 8.40189 19.4188 8.2407 19.2956C7.98195 19.0978 7.5093 19.0507 6.56515 18.9564C6.0672 18.9069 5.81765 18.8816 5.62215 18.7816C5.37553 18.6537 5.18354 18.4409 5.08165 18.1825C5 17.9789 5 17.7282 5 17.2268V15.7732C5 15.2718 5 15.0211 5.0805 14.8187C5.18272 14.5594 5.37561 14.3461 5.6233 14.2184C5.81765 14.1184 6.0672 14.0931 6.5663 14.0436C7.5093 13.9493 7.98195 13.9022 8.2407 13.7044C8.40209 13.5813 8.52807 13.4178 8.60583 13.2304C8.68359 13.043 8.71037 12.8383 8.68345 12.6371C8.63975 12.314 8.33845 11.9471 7.73815 11.2111C7.42075 10.8236 7.26205 10.6304 7.19535 10.4211C7.11064 10.156 7.12494 9.86916 7.2356 9.6138C7.323 9.4137 7.5001 9.23545 7.8543 8.88125L8.8824 7.8543C9.2366 7.5001 9.4137 7.32185 9.61495 7.2356C9.87031 7.12494 10.1571 7.11064 10.4223 7.19535C10.6304 7.26205 10.8247 7.42075 11.2123 7.73815C11.9471 8.33845 12.314 8.6386 12.636 8.6823C12.8375 8.70964 13.0426 8.68307 13.2305 8.60529C13.4184 8.52752 13.5823 8.40131 13.7055 8.23955C13.901 7.9808 13.9493 7.5093 14.0436 6.56515C14.0931 6.0672 14.1184 5.81765 14.2184 5.62215C14.3461 5.3751 14.5589 5.18267 14.8175 5.0805C15.0211 5 15.2718 5 15.7732 5H17.2268C17.7282 5 17.9789 5 18.1813 5.0805C18.4406 5.18272 18.6539 5.37561 18.7816 5.6233ZM16.5 21.1C17.72 21.1 18.89 20.6154 19.7527 19.7527C20.6154 18.89 21.1 17.72 21.1 16.5C21.1 15.28 20.6154 14.11 19.7527 13.2473C18.89 12.3846 17.72 11.9 16.5 11.9C15.28 11.9 14.11 12.3846 13.2473 13.2473C12.3846 14.11 11.9 15.28 11.9 16.5C11.9 17.72 12.3846 18.89 13.2473 19.7527C14.11 20.6154 15.28 21.1 16.5 21.1Z" fill="#879FAD"/>
</g>
<defs>
<clipPath id="clip0_1_3698">
<rect width="32" height="32" fill="white"/>
</clipPath>
</defs>
</svg>
