<svg width="33" height="33" viewBox="0 0 33 33" fill="none" xmlns="http://www.w3.org/2000/svg">
<g clip-path="url(#clip0_1_4296)">
<path d="M10.4 24.6364H15.9V29L13.15 27.3636L10.4 29V24.6364ZM25.8 5H17V29L19.75 27.3636L22.5 29V26.8182H25.8C26.3835 26.8182 26.9431 26.5883 27.3556 26.1791C27.7682 25.77 28 25.215 28 24.6364V7.18182C28 6.60316 27.7682 6.04821 27.3556 5.63904C26.9431 5.22987 26.3835 5 25.8 5ZM19.2 9.36364H21.4V11.5455H19.2V9.36364ZM19.2 14.8182H21.4V17H19.2V14.8182ZM19.2 20.2727H21.4V22.4545H19.2V20.2727ZM8.2 5C7.61706 5.00173 7.05849 5.23215 6.64629 5.64095C6.23409 6.04974 6.00174 6.6037 6 7.18182V24.6364C6.00174 25.2145 6.23409 25.7684 6.64629 26.1772C7.05849 26.586 7.61706 26.8165 8.2 26.8182V7.18182H15.9V5H8.2Z" fill="#879FAD"/>
<path d="M10.4 9.36364H12.6V11.5455H10.4V9.36364ZM10.4 14.8182H12.6V17H10.4V14.8182ZM10.4 20.2727H12.6V22.4545H10.4V20.2727Z" fill="#879FAD"/>
</g>
<defs>
<clipPath id="clip0_1_4296">
<rect width="33" height="33" fill="white"/>
</clipPath>
</defs>
</svg>
