<svg width="32" height="32" viewBox="0 0 32 32" fill="none" xmlns="http://www.w3.org/2000/svg">
<g clip-path="url(#clip0_1_3689)">
<path d="M5.125 4C5.42337 4 5.70952 4.11853 5.9205 4.3295C6.13147 4.54048 6.25 4.82663 6.25 5.125V23.875C6.25 24.91 7.09 25.75 8.125 25.75H26.875C27.1734 25.75 27.4595 25.8685 27.6705 26.0795C27.8815 26.2905 28 26.5766 28 26.875C28 27.1734 27.8815 27.4595 27.6705 27.6705C27.4595 27.8815 27.1734 28 26.875 28H8.125C7.03098 28 5.98177 27.5654 5.20818 26.7918C4.4346 26.0182 4 24.969 4 23.875V5.125C4 4.82663 4.11853 4.54048 4.3295 4.3295C4.54048 4.11853 4.82663 4 5.125 4ZM25 9.25V24.25H8.125C8.02554 24.25 7.93016 24.2105 7.85983 24.1402C7.78951 24.0698 7.75 23.9745 7.75 23.875V13.096L11.1955 11.566C11.3029 11.5181 11.4202 11.4961 11.5377 11.5018C11.6552 11.5075 11.7697 11.5408 11.872 11.599L16.6795 14.3455L23.782 8.665C23.8923 8.57694 24.0252 8.52178 24.1654 8.50586C24.3056 8.48993 24.4475 8.5139 24.5747 8.575C24.7019 8.6361 24.8093 8.73186 24.8846 8.85126C24.9598 8.97067 24.9998 9.10887 25 9.25Z" fill="#879FAD"/>
</g>
<defs>
<clipPath id="clip0_1_3689">
<rect width="32" height="32" fill="white"/>
</clipPath>
</defs>
</svg>
