<svg width="32" height="32" viewBox="0 0 32 32" fill="none" xmlns="http://www.w3.org/2000/svg">
<g clip-path="url(#clip0_1_3670)">
<path d="M6.8334 14.3324C6.61237 14.3324 6.40039 14.2446 6.2441 14.0883C6.0878 13.932 6 13.72 6 13.499V6.8334C6 6.61237 6.0878 6.40039 6.2441 6.2441C6.40039 6.0878 6.61237 6 6.8334 6H13.5006C13.7217 6 13.9336 6.0878 14.0899 6.2441C14.2462 6.40039 14.334 6.61237 14.334 6.8334V13.499C14.334 13.72 14.2462 13.932 14.0899 14.0883C13.9336 14.2446 13.7217 14.3324 13.5006 14.3324H6.8334ZM18.501 14.3324C18.28 14.3324 18.068 14.2446 17.9117 14.0883C17.7554 13.932 17.6676 13.72 17.6676 13.499V6.8334C17.6676 6.61237 17.7554 6.40039 17.9117 6.2441C18.068 6.0878 18.28 6 18.501 6H25.1666C25.3876 6 25.5996 6.0878 25.7559 6.2441C25.9122 6.40039 26 6.61237 26 6.8334V13.499C26 13.72 25.9122 13.932 25.7559 14.0883C25.5996 14.2446 25.3876 14.3324 25.1666 14.3324H18.501ZM6.8334 26C6.61237 26 6.40039 25.9122 6.2441 25.7559C6.0878 25.5996 6 25.3876 6 25.1666V18.4994C6 18.2783 6.0878 18.0664 6.2441 17.9101C6.40039 17.7538 6.61237 17.666 6.8334 17.666H13.5006C13.7217 17.666 13.9336 17.7538 14.0899 17.9101C14.2462 18.0664 14.334 18.2783 14.334 18.4994V25.1666C14.334 25.3876 14.2462 25.5996 14.0899 25.7559C13.9336 25.9122 13.7217 26 13.5006 26H6.8334ZM18.501 26C18.28 26 18.068 25.9122 17.9117 25.7559C17.7554 25.5996 17.6676 25.3876 17.6676 25.1666V18.4994C17.6676 18.2783 17.7554 18.0664 17.9117 17.9101C18.068 17.7538 18.28 17.666 18.501 17.666H25.1666C25.3876 17.666 25.5996 17.7538 25.7559 17.9101C25.9122 18.0664 26 18.2783 26 18.4994V25.1666C26 25.3876 25.9122 25.5996 25.7559 25.7559C25.5996 25.9122 25.3876 26 25.1666 26H18.501Z" fill="#879FAD"/>
</g>
<defs>
<clipPath id="clip0_1_3670">
<rect width="32" height="32" fill="white"/>
</clipPath>
</defs>
</svg>
