<svg width="32" height="32" viewBox="0 0 32 32" fill="none" xmlns="http://www.w3.org/2000/svg">
<g clip-path="url(#clip0_1_3682)">
<path d="M11 5H6.2C5.88174 5 5.57652 5.12643 5.35147 5.35147C5.12643 5.57652 5 5.88174 5 6.2V27.8C5 28.1183 5.12643 28.4235 5.35147 28.6485C5.57652 28.8736 5.88174 29 6.2 29H11C11.3183 29 11.6235 28.8736 11.8485 28.6485C12.0736 28.4235 12.2 28.1183 12.2 27.8V6.2C12.2 5.88174 12.0736 5.57652 11.8485 5.35147C11.6235 5.12643 11.3183 5 11 5ZM8.6 27.8C8.12532 27.8 7.66131 27.6592 7.26663 27.3955C6.87195 27.1318 6.56434 26.757 6.38269 26.3184C6.20104 25.8799 6.15351 25.3973 6.24612 24.9318C6.33872 24.4662 6.5673 24.0386 6.90294 23.7029C7.23859 23.3673 7.66623 23.1387 8.13178 23.0461C8.59734 22.9535 9.0799 23.001 9.51844 23.1827C9.95698 23.3643 10.3318 23.672 10.5955 24.0666C10.8592 24.4613 11 24.9253 11 25.4C11 26.0365 10.7471 26.647 10.2971 27.0971C9.84697 27.5471 9.23652 27.8 8.6 27.8ZM11 17H6.2V6.2H11V17Z" fill="#879FAD"/>
<path d="M14.612 5V15.812H20.612V5H14.612ZM23 5V15.812H29V5H23ZM14.612 18.2V29H20.612V18.2H14.612ZM23 18.2V29H29V18.2H23Z" fill="#879FAD"/>
</g>
<defs>
<clipPath id="clip0_1_3682">
<rect width="32" height="32" fill="white"/>
</clipPath>
</defs>
</svg>
