<svg width="24" height="11" viewBox="0 0 24 11" fill="none" xmlns="http://www.w3.org/2000/svg">
<path fill-rule="evenodd" clip-rule="evenodd" d="M4.42763 0V1.207H3.53765C2.51988 1.207 1.65548 1.84871 1.3669 2.73132C0.789735 3.04737 0.314817 3.51372 0 4.07513V3.37817C0 1.51533 1.58687 0 3.53765 0H4.42763ZM16.4781 5.28086V2.33628H17.8329V1.43826H16.4781V0.115637H15.3157V1.4389H14.6585V2.33692H15.3157V5.28149C15.3157 5.80245 15.4536 6.17887 15.7301 6.41078C16.0059 6.64266 16.4035 6.75828 16.9228 6.75828H17.8329V5.841H17.1253C16.8891 5.841 16.7223 5.79732 16.6248 5.71059C16.5272 5.62388 16.4781 5.48064 16.4781 5.28086ZM4.79154 5.53584C5.03439 5.9508 5.36804 6.27264 5.79252 6.50132V6.50066C6.21697 6.7287 6.68516 6.84305 7.21794 6.84305C7.7507 6.84305 8.23773 6.72936 8.679 6.50066C9.12029 6.27264 9.46874 5.94887 9.72503 5.5307C9.98132 5.11253 10.1091 4.63269 10.1091 4.09246C10.1091 3.55224 9.98401 3.0724 9.73511 2.6542C9.48555 2.23604 9.14517 1.91422 8.71399 1.68874C8.28279 1.46328 7.80049 1.35086 7.2684 1.35086C6.73628 1.35086 6.25398 1.46328 5.82278 1.68874C5.39159 1.91422 5.05121 2.23604 4.80165 2.6542C4.55207 3.0724 4.42763 3.54518 4.42763 4.09246C4.42763 4.63975 4.54872 5.12087 4.79154 5.53584ZM8.68371 5.07721C8.52226 5.34764 8.31171 5.55062 8.05207 5.68551V5.68487C7.7924 5.82042 7.51458 5.88786 7.21794 5.88786C6.75243 5.88786 6.36697 5.73176 6.06023 5.41958C5.75351 5.10803 5.60012 4.66544 5.60012 4.09246C5.60012 3.70639 5.67479 3.38008 5.82278 3.11285C5.97076 2.84629 6.17122 2.64457 6.42416 2.50969C6.6771 2.37414 6.95223 2.3067 7.2482 2.3067C7.54419 2.3067 7.82066 2.37479 8.07695 2.50969C8.33324 2.64457 8.53841 2.84563 8.69379 3.11285C8.8492 3.37944 8.92656 3.70639 8.92656 4.09246C8.92656 4.47852 8.84516 4.80676 8.68371 5.07721ZM23.959 4.50819H19.7029C19.7365 4.93279 19.9013 5.27386 20.198 5.53146C20.4946 5.78906 20.8586 5.91751 21.2898 5.91751C21.91 5.91751 22.3479 5.66957 22.6042 5.1743H23.848C23.6791 5.66314 23.3744 6.06398 22.9331 6.37616C22.4918 6.68834 21.9443 6.84444 21.2904 6.84444C20.7576 6.84444 20.2814 6.73009 19.8596 6.50208C19.4385 6.2734 19.1082 5.95156 18.8688 5.53659C18.6293 5.12162 18.5102 4.64051 18.5102 4.09322C18.5102 3.54591 18.6266 3.0648 18.8587 2.64983C19.0914 2.23487 19.4183 1.91433 19.8394 1.6895C20.2606 1.46403 20.7442 1.35162 21.2904 1.35162C21.8366 1.35162 22.2846 1.46082 22.6957 1.67987C23.1067 1.89891 23.4269 2.20596 23.6563 2.60165C23.885 2.99735 24 3.45278 24 3.96794C24 4.16773 23.9866 4.34759 23.9597 4.50883L23.959 4.50819ZM22.7966 3.61978C22.7899 3.21447 22.6378 2.88943 22.3418 2.64469C22.0452 2.39995 21.6779 2.2779 21.24 2.2779C20.8424 2.2779 20.502 2.39867 20.2188 2.6402C19.9356 2.88173 19.7675 3.20804 19.7136 3.61978H22.7966ZM3.53765 3.89072V2.68437C3.3964 2.68437 3.25781 2.69209 3.12127 2.70749C2.41898 2.78652 1.77858 3.06272 1.26331 3.47705C0.750718 3.88816 0.362579 4.43608 0.158754 5.0611C0.055833 5.3778 0 5.71374 0 6.06254V6.75693H1.26331V6.06254C1.26331 4.86518 2.28444 3.89072 3.53765 3.89072ZM12.4036 1.43817H11.2513V6.75757H12.4036V3.71072C12.5216 2.93223 13.2253 2.33234 14.072 2.33234V1.43818C13.9671 1.43818 13.8642 1.44396 13.7633 1.45552C13.2505 1.51309 12.7821 1.71272 12.4036 2.01208V1.43817Z" fill="#A31551"/>
<path d="M9.35743 11L8.51548 8.66822H8.49748C8.50147 8.72043 8.50616 8.79171 8.51148 8.88211C8.51681 8.9725 8.52149 9.06928 8.52548 9.17239C8.52948 9.27552 8.53147 9.3742 8.53147 9.46841V11H8.09551V8.20798H8.76946L9.57942 10.4366H9.59143L10.4294 8.20798H11.1013V11H10.6433V9.44548C10.6433 9.36019 10.6447 9.26789 10.6474 9.16857C10.6514 9.06928 10.6554 8.97505 10.6593 8.88595C10.6647 8.79682 10.6687 8.72552 10.6714 8.67206H10.6554L9.78139 11H9.35743ZM13.6832 11L13.3972 10.2246H12.2793L11.9933 11H11.4873L12.5752 8.19652H13.1072L14.1931 11H13.6832ZM13.2732 9.83126L12.9952 9.06737C12.9846 9.03425 12.9692 8.98778 12.9492 8.92794C12.9292 8.86683 12.9092 8.80508 12.8892 8.7427C12.8692 8.67905 12.8525 8.62559 12.8392 8.5823C12.8259 8.63449 12.8092 8.69306 12.7892 8.75798C12.7706 8.82163 12.7519 8.88147 12.7332 8.9375C12.7159 8.99353 12.7026 9.03682 12.6932 9.06737L12.4132 9.83126H13.2732ZM15.4011 8.20798C15.653 8.20798 15.861 8.23726 16.025 8.29583C16.1903 8.3544 16.313 8.44353 16.393 8.56318C16.4743 8.68286 16.515 8.835 16.515 9.01961C16.515 9.15711 16.4883 9.27425 16.435 9.371C16.3817 9.46777 16.3117 9.54798 16.225 9.61163C16.1384 9.67528 16.0457 9.72622 15.947 9.76441L16.777 11H16.235L15.5291 9.88091H15.0591V11H14.5791V8.20798H15.4011ZM15.3691 8.58992H15.0591V9.50278H15.3911C15.6137 9.50278 15.775 9.4633 15.875 9.38437C15.9764 9.30544 16.027 9.18894 16.027 9.03489C16.027 8.87321 15.973 8.75862 15.865 8.69115C15.7584 8.62366 15.5931 8.58992 15.3691 8.58992ZM19.4248 11H18.8729L17.9629 9.73194L17.6749 9.95539V11H17.195V8.20798H17.6749V9.54289C17.7336 9.47413 17.7929 9.40539 17.8529 9.33663C17.9129 9.26789 17.9729 9.19913 18.0329 9.13039L18.8569 8.20798H19.3988L18.3069 9.4302L19.4248 11ZM21.4667 11H19.8108V8.20798H21.4667V8.59374H20.2908V9.35191H21.3927V9.73576H20.2908V10.6123H21.4667V11ZM23.1126 11H22.6306V8.59758H21.7747V8.20798H23.9665V8.59758H23.1126V11Z" fill="#070257"/>
</svg>
