<svg width="18" height="20" viewBox="0 0 18 20" fill="none" xmlns="http://www.w3.org/2000/svg">
<path d="M3.88919 6.77815L8.99998 2.95938L14.1108 6.77815H18L8.99998 0L0 6.77815H3.88919Z" fill="#F89734"/>
<path d="M15.6459 3.55627V3.27434e-09L12.7025 0V1.34063L15.6459 3.55627Z" fill="#16B568"/>
<path d="M4.17084 8.13095L1.92288 8.12506C0.960997 8.12506 0.641779 8.75006 0.64178 9.20146C0.641782 10.0001 1.28162 10.4688 2.52602 10.4028C2.98131 12.6987 3.4381 14.7313 3.89125 17.0314H14.1513C14.7605 13.973 15.3201 11.207 15.925 8.14657C13.8785 8.125 11.8784 8.125 10.3226 8.125H10.2592C9.29728 8.125 8.97858 8.82093 8.97666 9.21876C8.97474 9.61657 9.29728 10.4122 10.2592 10.4122H13.3857C13.0843 11.9393 12.7807 13.4653 12.4751 14.9903H5.52064C5.06963 12.7091 4.61971 10.4226 4.17084 8.13095Z" fill="#16B568"/>
<path d="M5.17523 20C5.88354 20 6.45773 19.4403 6.45773 18.75C6.45773 18.0596 5.88354 17.5001 5.17523 17.5001C4.46692 17.5001 3.89272 18.0596 3.89272 18.75C3.89272 19.4403 4.46692 20 5.17523 20Z" fill="#16B568"/>
<path d="M12.8248 20C13.5331 20 14.1073 19.4403 14.1073 18.75C14.1073 18.0596 13.5331 17.5001 12.8248 17.5001C12.1165 17.5001 11.5423 18.0596 11.5423 18.75C11.5423 19.4403 12.1165 20 12.8248 20Z" fill="#16B568"/>
</svg>
