<svg width="15" height="16" viewBox="0 0 15 16" fill="none" xmlns="http://www.w3.org/2000/svg">
<path fill-rule="evenodd" clip-rule="evenodd" d="M0 13.7567V2.14862V1.91891C0.109878 0.783756 1.1538 0 2.47249 0H12.5824C14.1209 0 15 0.945952 15 2.64865V13.5135C15 14.9459 14.0659 16 12.8571 16H2.08789C0.989006 16 0.109878 15.1216 0 13.9865V13.7567ZM6.08907 12.6898C6.54339 12.4474 6.82999 11.9517 6.82999 11.41V8.35824L4.89131 9.39348C4.43665 9.6358 4.15036 10.1322 4.15036 10.6741V13.7259L6.08907 12.6898ZM10.1087 10.5432C10.5624 10.2999 10.8495 9.80448 10.8495 9.26232V2.27405L8.91012 3.30949C8.4563 3.55248 8.1699 4.04824 8.1699 4.59V11.5785L10.1087 10.5432Z" fill="#FF6700"/>
</svg>
