<svg width="22" height="22" viewBox="0 0 22 22" fill="none" xmlns="http://www.w3.org/2000/svg">
<path fill-rule="evenodd" clip-rule="evenodd" d="M11.5139 11.7915C13.4828 12.0955 13.7489 13.2604 13.9081 14.3447L13.9346 14.5296L13.9527 14.6554L14.0485 15.2934C14.2361 16.5118 14.6274 19.0407 14.6274 20.3603C14.6274 20.6901 14.5984 20.9432 14.5454 21.0823C14.457 21.2967 14.1996 21.5024 13.8442 21.6739C12.9842 21.8855 12.0853 22 11.1594 22C11.0613 22 10.9649 21.9953 10.8681 21.9924C10.4939 21.8861 10.2126 21.7086 10.0637 21.4662C9.61407 20.7342 9.58698 19.1036 9.57797 17.198L9.57694 16.9769L9.5733 16.4057C9.55866 14.3884 9.54607 12.649 10.279 12.0249C10.5629 11.7848 10.9662 11.7053 11.5139 11.7915ZM7.22129 16.1836C7.64796 16.1596 7.92234 18.2582 7.97747 19.8496C8.01611 20.9575 7.89979 21.4132 7.71403 21.5768C7.50372 21.5067 7.29706 21.4307 7.09342 21.3482C6.95757 21.1013 6.85374 20.713 6.78777 20.2044C6.58637 18.606 6.76132 16.2118 7.22129 16.1836ZM17.9178 19.3197C17.8912 19.4655 17.8536 19.5781 17.8074 19.6731C17.4426 19.9658 17.0591 20.2346 16.6579 20.4764C16.5301 20.4979 16.4166 20.4829 16.3611 20.3891C15.8293 19.4547 15.6298 16.5235 16.1444 16.2684C16.8153 15.9443 18.0172 18.813 17.9178 19.3197ZM11.0005 0C16.9912 0 21.8629 4.74418 21.9972 10.6475L22 10.8516V10.9459C21.989 13.6125 21.0077 16.0522 19.3909 17.9404C19.3323 17.911 19.2253 17.8147 19.0315 17.5248C18.831 17.2334 17.1015 14.5718 17.1015 11.5212C17.1015 10.9225 17.9644 9.98731 18.7281 9.16644C19.2989 8.54872 19.8396 7.96606 20.0387 7.50812C20.2923 6.91721 20.1149 6.50461 19.8342 6.36475C19.5802 6.24046 19.1989 6.33112 18.9312 6.80646C18.492 7.57577 18.3513 7.71953 17.7107 8.23426C17.0803 8.74871 16.0781 9.26661 16.0781 8.59622C16.0781 8.23426 16.6363 7.41448 16.9121 6.83987C17.1937 6.25884 16.8902 5.83822 16.3087 5.83822C15.1668 5.83822 14.4088 7.29279 14.4088 7.79673C14.4088 8.30026 14.6531 8.37196 14.6531 8.95833C14.6531 9.5491 13.4003 10.3154 12.2201 10.3154C11.0839 10.3154 10.425 10.0854 10.152 9.43752L10.1171 9.34656L10.0382 9.11309C9.75824 8.29489 9.55742 7.70151 9.20782 7.08139C9.0222 6.75345 8.73579 6.52611 8.48808 6.32607C8.16434 6.07461 7.99638 5.84307 7.96132 5.67039C7.92901 5.49907 7.91161 5.17621 8.46505 4.43197C9.01732 3.69197 9.09473 3.13294 8.81836 2.84448C8.71819 2.74187 8.54741 2.67612 8.3281 2.67612C7.94021 2.67612 7.40121 2.88165 6.84575 3.4462C5.98228 4.33098 6.47248 5.17102 6.47248 5.53979C6.47248 5.90832 6.31429 6.11678 5.79611 6.61815C5.27414 7.12174 5.094 7.55349 5.0343 9.28874C5.01143 10.1828 4.85396 10.6975 4.71261 11.1539C4.59047 11.5539 4.47814 11.9299 4.47207 12.4732C4.4624 13.0754 4.56262 13.4634 4.67958 13.9111C4.79441 14.3249 4.91637 14.7991 4.99452 15.5922C5.1188 16.82 5.07559 17.8572 4.84963 18.9172L4.78932 19.1828L4.77522 19.2591C4.72895 19.4455 4.67394 19.6717 4.59959 19.7565C1.81552 17.779 0 14.5496 0 10.899C0 4.88017 4.92491 0 11.0005 0Z" fill="#F14635"/>
</svg>
