<svg width="195" height="38" viewBox="0 0 195 38" fill="none" xmlns="http://www.w3.org/2000/svg">
<path d="M0 4.86047C0 2.1761 2.11979 0 4.73468 0H32.2819C34.8968 0 37.0166 2.1761 37.0166 4.86047V33.1395C37.0166 35.8239 34.8968 38 32.2819 38H4.73468C2.11979 38 0 35.8239 0 33.1395V4.86047Z" fill="#F14635"/>
<path d="M24.6337 26.8694C26.3151 25.4807 27.5198 23.5762 28.0717 21.4345C28.6236 19.2927 28.4937 17.0259 27.7011 14.9653L22.9971 16.8722C23.3934 17.9025 23.4583 19.0359 23.1824 20.1068C22.9065 21.1777 22.3041 22.1299 21.4634 22.8242L24.6337 26.8694Z" fill="#FFD8D5"/>
<path d="M27.2989 14.0515C26.5563 12.5607 25.4735 11.2764 24.1429 10.308L21.8911 13.5689C22.7095 14.1645 23.3754 14.9544 23.8322 15.8714L27.2989 14.0515Z" fill="#F79C93"/>
<path d="M23.6117 27.6114C22.087 28.579 20.3392 29.1133 18.5472 29.1595C16.7552 29.2057 14.9834 28.7623 13.4132 27.8745C11.8431 26.9867 10.5309 25.6865 9.61115 24.1071C8.69136 22.5276 8.19698 20.7256 8.17861 18.8855C8.16024 17.0454 8.61854 15.2333 9.5066 13.6349C10.3947 12.0364 11.6806 10.7088 13.2327 9.78823C14.7848 8.8676 16.5473 8.38695 18.3399 8.39546C20.1324 8.40397 21.8905 8.90135 23.4343 9.83668L20.8637 14.3079C20.0918 13.8402 19.2127 13.5915 18.3165 13.5873C17.4202 13.583 16.5389 13.8233 15.7629 14.2836C14.9868 14.744 14.3439 15.4077 13.8998 16.207C13.4558 17.0062 13.2267 17.9122 13.2358 18.8323C13.245 19.7523 13.4922 20.6533 13.9521 21.4431C14.412 22.2328 15.0681 22.8829 15.8531 23.3268C16.6382 23.7707 17.5241 23.9924 18.4201 23.9693C19.3161 23.9462 20.19 23.679 20.9524 23.1952L23.6117 27.6114Z" fill="white"/>
<path d="M57.0468 29.587C55.596 29.587 54.2875 29.3278 53.1213 28.8093C51.9644 28.2909 51.0094 27.5509 50.2564 26.5894C49.5127 25.6185 49.0398 24.4685 48.8378 23.1393L52.2812 22.602C52.575 23.8086 53.1764 24.7418 54.0855 25.4017C55.0037 26.0615 56.0597 26.3914 57.2534 26.3914C57.9605 26.3914 58.6262 26.2783 59.2506 26.0521C59.875 25.8259 60.38 25.4959 60.7657 25.0623C61.1605 24.6287 61.358 24.0961 61.358 23.4646C61.358 23.1818 61.312 22.9225 61.2202 22.6869C61.1284 22.4418 60.9907 22.225 60.807 22.0365C60.6326 21.8479 60.403 21.6783 60.1183 21.5274C59.8429 21.3672 59.5215 21.2305 59.1542 21.1174L54.0304 19.562C53.5896 19.4301 53.1122 19.2557 52.5979 19.0389C52.0929 18.8127 51.6108 18.5063 51.1517 18.1198C50.7018 17.7239 50.3299 17.2243 50.0361 16.621C49.7514 16.0083 49.6091 15.2542 49.6091 14.3587C49.6091 13.0484 49.9305 11.9503 50.5732 11.0642C51.2252 10.1687 52.0975 9.49941 53.1902 9.05637C54.2921 8.61333 55.5134 8.39653 56.854 8.40595C58.213 8.41538 59.4251 8.65575 60.4902 9.12707C61.5554 9.58896 62.4461 10.2629 63.1623 11.149C63.8785 12.0351 64.3836 13.105 64.6774 14.3587L61.11 14.995C60.9631 14.2786 60.6785 13.6706 60.2561 13.171C59.8429 12.662 59.3332 12.2755 58.7272 12.0115C58.1303 11.7476 57.4922 11.6062 56.8127 11.5873C56.1515 11.5779 55.5363 11.6816 54.967 11.8984C54.4069 12.1058 53.9524 12.4074 53.6034 12.8033C53.2637 13.1993 53.0938 13.6611 53.0938 14.189C53.0938 14.6886 53.2407 15.0987 53.5346 15.4192C53.8284 15.7302 54.1911 15.98 54.6227 16.1686C55.0634 16.3477 55.5088 16.4985 55.9587 16.621L59.5123 17.6391C59.999 17.771 60.5453 17.9501 61.1514 18.1764C61.7574 18.4026 62.3405 18.7184 62.9006 19.1237C63.4607 19.5291 63.9198 20.0616 64.278 20.7215C64.6453 21.3813 64.8289 22.2203 64.8289 23.2383C64.8289 24.2941 64.6131 25.2226 64.1815 26.0238C63.7592 26.8156 63.1853 27.4755 62.4598 28.0033C61.7344 28.5312 60.9034 28.9271 59.9668 29.1911C59.0394 29.455 58.0661 29.587 57.0468 29.587Z" fill="#414653"/>
<path d="M67.8102 29.1628V8.80186H70.7991L77.6584 23.2242L84.5176 8.80186H87.5065V29.1628H84.4074V16.112L78.3195 29.1628H76.9972L70.9231 16.112V29.1628H67.8102Z" fill="#414653"/>
<path d="M89.9987 29.1628L96.2519 8.80186H101.114L107.367 29.1628H103.951L98.2766 10.8945H99.0204L93.4145 29.1628H89.9987ZM93.4834 24.7513V21.5699H103.896V24.7513H93.4834Z" fill="#414653"/>
<path d="M109.857 29.1628V8.80186H118.053C118.246 8.80186 118.493 8.81129 118.796 8.83014C119.099 8.83957 119.38 8.86784 119.637 8.91498C120.784 9.09408 121.73 9.48527 122.474 10.0886C123.227 10.6918 123.783 11.4554 124.141 12.3792C124.508 13.2935 124.692 14.3116 124.692 15.4333C124.692 17.0923 124.283 18.5204 123.466 19.7176C122.648 20.9053 121.395 21.6406 119.706 21.9233L118.287 22.0506H113.177V29.1628H109.857ZM121.248 29.1628L117.336 20.877L120.711 20.1135L125.008 29.1628H121.248ZM113.177 18.8692H117.915C118.099 18.8692 118.305 18.8598 118.535 18.8409C118.764 18.8221 118.976 18.7844 119.168 18.7278C119.719 18.5864 120.151 18.3366 120.463 17.9784C120.784 17.6202 121.009 17.2149 121.138 16.7624C121.276 16.31 121.345 15.8669 121.345 15.4333C121.345 14.9997 121.276 14.5567 121.138 14.1042C121.009 13.6423 120.784 13.2322 120.463 12.874C120.151 12.5158 119.719 12.266 119.168 12.1247C118.976 12.0681 118.764 12.0351 118.535 12.0257C118.305 12.0068 118.099 11.9974 117.915 11.9974H113.177V18.8692Z" fill="#414653"/>
<path d="M132.809 29.1628V11.9974H126.39V8.80186H142.546V11.9974H136.128V29.1628H132.809Z" fill="#414653"/>
<path d="M153.868 29.1628V8.80186H161.733C163.074 8.80186 164.171 9.07994 165.025 9.63609C165.888 10.1828 166.526 10.8851 166.94 11.7429C167.362 12.6007 167.573 13.4868 167.573 14.4011C167.573 15.5229 167.311 16.4749 166.788 17.2573C166.274 18.0397 165.571 18.5676 164.681 18.8409V18.134C165.929 18.4262 166.875 19.0342 167.518 19.958C168.17 20.8817 168.496 21.9328 168.496 23.1111C168.496 24.3176 168.271 25.3734 167.821 26.2783C167.371 27.1833 166.701 27.8902 165.81 28.3993C164.929 28.9083 163.836 29.1628 162.532 29.1628H153.868ZM157.229 25.9531H162.119C162.697 25.9531 163.216 25.8353 163.675 25.5996C164.134 25.3545 164.492 25.0152 164.75 24.5816C165.016 24.1385 165.149 23.6154 165.149 23.0121C165.149 22.4654 165.034 21.9752 164.805 21.5416C164.575 21.108 164.24 20.7639 163.799 20.5094C163.358 20.2455 162.83 20.1135 162.215 20.1135H157.229V25.9531ZM157.229 16.9321H161.692C162.169 16.9321 162.596 16.8378 162.973 16.6493C163.349 16.4608 163.648 16.1827 163.868 15.8151C164.088 15.4474 164.199 14.995 164.199 14.4577C164.199 13.7507 163.978 13.1616 163.537 12.6902C163.097 12.2189 162.481 11.9833 161.692 11.9833H157.229V16.9321Z" fill="#F14635"/>
<path d="M171.522 29.1628V8.80186H174.842V29.1628H171.522Z" fill="#F14635"/>
<path d="M178.968 29.1628V8.80186H185.29C185.455 8.80186 185.781 8.80657 186.268 8.816C186.763 8.82543 187.241 8.85842 187.7 8.91498C189.27 9.12236 190.597 9.69736 191.681 10.64C192.773 11.5732 193.6 12.7656 194.16 14.2173C194.72 15.669 195 17.2573 195 18.9823C195 20.7073 194.72 22.2957 194.16 23.7474C193.6 25.199 192.773 26.3962 191.681 27.3388C190.597 28.272 189.27 28.8423 187.7 29.0497C187.25 29.1062 186.777 29.1392 186.281 29.1487C185.785 29.1581 185.455 29.1628 185.29 29.1628H178.968ZM182.342 25.9531H185.29C185.565 25.9531 185.914 25.9437 186.336 25.9248C186.768 25.906 187.149 25.8636 187.48 25.7976C188.416 25.6185 189.178 25.1896 189.766 24.5109C190.354 23.8322 190.785 23.0074 191.061 22.0365C191.345 21.0656 191.488 20.0475 191.488 18.9823C191.488 17.8794 191.345 16.8425 191.061 15.8716C190.776 14.9007 190.335 14.0853 189.738 13.4255C189.151 12.7656 188.398 12.3462 187.48 12.1671C187.149 12.0917 186.768 12.0492 186.336 12.0398C185.914 12.021 185.565 12.0115 185.29 12.0115H182.342V25.9531Z" fill="#F14635"/>
<path d="M149.788 26.7326C149.788 28.0747 148.728 29.1628 147.421 29.1628C146.113 29.1628 145.053 28.0747 145.053 26.7326C145.053 25.3904 146.113 24.3023 147.421 24.3023C148.728 24.3023 149.788 25.3904 149.788 26.7326Z" fill="#F14635"/>
</svg>
