<svg width="19" height="23" viewBox="0 0 19 23" fill="none" xmlns="http://www.w3.org/2000/svg">
<path d="M18.6006 15.8798C18.5185 15.7771 18.4379 15.6744 18.3588 15.5753C17.2712 14.2092 16.6132 13.3847 16.6132 9.51728C16.6132 7.51505 16.1519 5.87219 15.2428 4.64004C14.5724 3.7298 13.6662 3.03929 12.4718 2.52897C12.4564 2.52009 12.4427 2.50845 12.4313 2.49458C12.0017 1.0006 10.826 0 9.50012 0C8.17421 0 6.99908 1.0006 6.56947 2.49304C6.55802 2.50642 6.54449 2.5177 6.52942 2.52641C3.74214 3.71799 2.38755 6.00413 2.38755 9.51574C2.38755 13.3847 1.73053 14.2092 0.641918 15.5738C0.562818 15.6729 0.482235 15.7735 0.400168 15.8782C0.188181 16.1437 0.0538694 16.4667 0.0131292 16.809C-0.0276111 17.1513 0.0269252 17.4985 0.170284 17.8096C0.475313 18.477 1.12542 18.8913 1.86747 18.8913H17.1382C17.8768 18.8913 18.5225 18.4775 18.8285 17.8132C18.9725 17.502 19.0275 17.1545 18.9871 16.8118C18.9467 16.4691 18.8126 16.1457 18.6006 15.8798ZM9.50012 23C10.2145 22.9994 10.9154 22.798 11.5285 22.4172C12.1416 22.0364 12.644 21.4904 12.9825 20.8371C12.9984 20.8058 13.0063 20.7707 13.0054 20.7353C13.0044 20.6999 12.9946 20.6653 12.977 20.635C12.9594 20.6047 12.9345 20.5796 12.9048 20.5622C12.8751 20.5448 12.8416 20.5357 12.8075 20.5357H6.19374C6.1596 20.5356 6.126 20.5447 6.09622 20.562C6.06645 20.5794 6.04151 20.6045 6.02384 20.6348C6.00617 20.6651 5.99636 20.6997 5.99538 20.7352C5.9944 20.7706 6.00228 20.8057 6.01824 20.8371C6.35666 21.4903 6.859 22.0363 7.472 22.4171C8.08501 22.7979 8.78582 22.9993 9.50012 23Z" fill="#879FAD"/>
</svg>
